<svg width="47" height="47" viewBox="0 0 47 47" fill="none" xmlns="http://www.w3.org/2000/svg">
<path d="M3.68287 5.31981L7.69696 38.5473C7.83943 39.7245 8.67882 40.7027 9.82665 41.0288L22.7039 44.6838C23.2246 44.8314 23.7761 44.8351 24.299 44.6933L37.8423 41.0244C39.0276 40.7035 39.8905 39.69 40.0124 38.4754L43.3531 5.29117C43.4405 4.42387 42.7553 3.67188 41.8777 3.67188H5.15455C4.26596 3.67188 3.57638 4.4437 3.68287 5.31981Z" fill="#7BBEEB"/>
<path d="M41.8777 3.67188H23.5V44.7969C23.7688 44.7983 24.0376 44.7638 24.299 44.6933L37.8423 41.0244C39.0276 40.7035 39.8905 39.69 40.0124 38.4754L43.3531 5.29117C43.4405 4.42387 42.7553 3.67188 41.8777 3.67188Z" fill="#ACE3FF"/>
<path d="M23.5183 45.5312C23.1769 45.5312 22.8346 45.4842 22.5027 45.3902L9.62544 41.7353C8.18973 41.3277 7.14619 40.1116 6.967 38.6355L2.9529 5.40794C2.87726 4.78372 3.07408 4.15583 3.4912 3.68436C3.91273 3.20995 4.51859 2.9375 5.15529 2.9375H41.8785C42.5056 2.9375 43.1063 3.20334 43.5264 3.6682C43.9428 4.12939 44.1469 4.74773 44.0845 5.36534L40.7431 38.5495C40.5904 40.0565 39.502 41.3358 38.0333 41.7323L24.4914 45.4013C24.1727 45.4879 23.8459 45.5312 23.5183 45.5312ZM5.15529 4.40625C4.93572 4.40625 4.73523 4.49584 4.59129 4.65887C4.45029 4.81823 4.3864 5.02166 4.41211 5.23169L8.4262 38.4592C8.53342 39.3456 9.16205 40.077 10.0271 40.3223L22.9051 43.9773C23.298 44.0882 23.713 44.0911 24.1073 43.9847L37.6499 40.3157C38.5348 40.0763 39.1914 39.3074 39.2824 38.4027L42.6231 5.21773C42.6437 5.00991 42.5776 4.80942 42.4373 4.653C42.2926 4.49364 42.0936 4.40625 41.8777 4.40625H5.15529Z" fill="#8D6C9F"/>
<path d="M5.14062 8.8125C4.73452 8.8125 4.40625 8.48423 4.40625 8.07812V6.60938C4.40625 6.20327 4.73452 5.875 5.14062 5.875C5.54673 5.875 5.875 6.20327 5.875 6.60938V8.07812C5.875 8.48423 5.54673 8.8125 5.14062 8.8125ZM8.8125 8.8125C8.40639 8.8125 8.07812 8.48423 8.07812 8.07812V6.60938C8.07812 6.20327 8.40639 5.875 8.8125 5.875C9.21861 5.875 9.54688 6.20327 9.54688 6.60938V8.07812C9.54688 8.48423 9.21861 8.8125 8.8125 8.8125ZM12.4844 8.8125C12.0783 8.8125 11.75 8.48423 11.75 8.07812V6.60938C11.75 6.20327 12.0783 5.875 12.4844 5.875C12.8905 5.875 13.2188 6.20327 13.2188 6.60938V8.07812C13.2188 8.48423 12.8905 8.8125 12.4844 8.8125ZM16.1562 8.8125C15.7501 8.8125 15.4219 8.48423 15.4219 8.07812V6.60938C15.4219 6.20327 15.7501 5.875 16.1562 5.875C16.5624 5.875 16.8906 6.20327 16.8906 6.60938V8.07812C16.8906 8.48423 16.5624 8.8125 16.1562 8.8125ZM19.8281 8.8125C19.422 8.8125 19.0938 8.48423 19.0938 8.07812V6.60938C19.0938 6.20327 19.422 5.875 19.8281 5.875C20.2342 5.875 20.5625 6.20327 20.5625 6.60938V8.07812C20.5625 8.48423 20.2342 8.8125 19.8281 8.8125ZM23.5 8.8125C23.0939 8.8125 22.7656 8.48423 22.7656 8.07812V6.60938C22.7656 6.20327 23.0939 5.875 23.5 5.875C23.9061 5.875 24.2344 6.20327 24.2344 6.60938V8.07812C24.2344 8.48423 23.9061 8.8125 23.5 8.8125ZM27.1719 8.8125C26.7658 8.8125 26.4375 8.48423 26.4375 8.07812V6.60938C26.4375 6.20327 26.7658 5.875 27.1719 5.875C27.578 5.875 27.9062 6.20327 27.9062 6.60938V8.07812C27.9062 8.48423 27.578 8.8125 27.1719 8.8125ZM30.8438 8.8125C30.4376 8.8125 30.1094 8.48423 30.1094 8.07812V6.60938C30.1094 6.20327 30.4376 5.875 30.8438 5.875C31.2499 5.875 31.5781 6.20327 31.5781 6.60938V8.07812C31.5781 8.48423 31.2499 8.8125 30.8438 8.8125ZM34.5156 8.8125C34.1095 8.8125 33.7812 8.48423 33.7812 8.07812V6.60938C33.7812 6.20327 34.1095 5.875 34.5156 5.875C34.9217 5.875 35.25 6.20327 35.25 6.60938V8.07812C35.25 8.48423 34.9217 8.8125 34.5156 8.8125ZM38.1875 8.8125C37.7814 8.8125 37.4531 8.48423 37.4531 8.07812V6.60938C37.4531 6.20327 37.7814 5.875 38.1875 5.875C38.5936 5.875 38.9219 6.20327 38.9219 6.60938V8.07812C38.9219 8.48423 38.5936 8.8125 38.1875 8.8125ZM41.8594 8.8125C41.4533 8.8125 41.125 8.48423 41.125 8.07812V6.60938C41.125 6.20327 41.4533 5.875 41.8594 5.875C42.2655 5.875 42.5938 6.20327 42.5938 6.60938V8.07812C42.5938 8.48423 42.2655 8.8125 41.8594 8.8125ZM29.3743 40.2482C29.0511 40.2482 28.7545 40.033 28.6663 39.7062C28.5598 39.3148 28.7912 38.9116 29.1826 38.8051L30.6513 38.4071C31.0435 38.2999 31.4467 38.5319 31.5524 38.9233C31.6589 39.3148 31.4276 39.7179 31.0362 39.8244L29.5674 40.2225C29.5028 40.2401 29.4382 40.2482 29.3743 40.2482ZM23.5176 41.8616L19.6269 40.7571C19.237 40.6469 19.01 40.2401 19.1217 39.8501C19.2318 39.4602 19.6365 39.2318 20.0286 39.3449L23.5264 40.3378L26.2451 39.6019C26.6372 39.4932 27.0404 39.7268 27.1462 40.1182C27.2527 40.5096 27.0213 40.9135 26.6299 41.0192L23.5176 41.8616Z" fill="#8D6C9F"/>
<path d="M11.3828 22.0312L12.292 23.6924L13.9531 24.6016L12.292 25.5107L11.3828 27.1719L10.4737 25.5107L8.8125 24.6016L10.4737 23.6924L11.3828 22.0312ZM34.8843 34.5156L35.5276 35.698L36.7188 36.353L35.5276 36.9963L34.8843 38.1875L34.2292 36.9963L33.0469 36.353L34.2292 35.698L34.8843 34.5156ZM38.5576 16.8906L38.9476 17.5971L39.6562 17.9907L38.9468 18.3792L38.5576 19.0938L38.1625 18.3792L37.4531 17.9907L38.1625 17.5971L38.5576 16.8906Z" fill="#FFF8F8"/>
<path d="M34.5288 12.4844H12.4844C12.0335 12.4844 11.689 12.8868 11.7595 13.3326L12.3199 16.8906H30.384L29.8634 21.2969H18.3594V25.7031H29.3427L28.681 31.3027L23.569 32.8611L19.0548 31.3321L18.7288 29.2604C18.6722 28.9035 18.3645 28.6406 18.0032 28.6406H15.0297C14.5788 28.6406 14.2344 29.0438 14.3042 29.4896L15.0488 34.2182C15.0907 34.484 15.2765 34.7051 15.532 34.791L23.2819 37.4157C23.3561 37.4406 23.4324 37.4531 23.5095 37.4531C23.5793 37.4531 23.6491 37.4428 23.7166 37.4223L32.267 34.8167C32.5416 34.733 32.7414 34.4943 32.7744 34.2094L34.8975 16.2429L35.2463 13.2915C35.297 12.8618 34.9614 12.4844 34.5288 12.4844Z" fill="#FAEFDE"/>
<path d="M23.5103 38.1875C23.3554 38.1875 23.2012 38.1625 23.0521 38.1126L15.2971 35.4865C14.7823 35.3132 14.4092 34.8711 14.324 34.3335L13.5787 29.6034C13.5118 29.1789 13.6337 28.7478 13.9128 28.421C14.1926 28.0943 14.5994 27.907 15.0298 27.907H18.004C18.7318 27.907 19.342 28.4291 19.4551 29.1481L19.7122 30.7799L23.5823 32.09L28.0099 30.7409L28.5166 26.4375H18.3594C17.9533 26.4375 17.6251 26.1092 17.6251 25.7031V21.2969C17.6251 20.8908 17.9533 20.5625 18.3594 20.5625H29.2106L29.5579 17.625H12.3192C11.9579 17.625 11.6502 17.3621 11.5936 17.0045L11.0333 13.4457C10.9665 13.0219 11.0884 12.5909 11.3674 12.2641C11.6472 11.9373 12.0541 11.75 12.4844 11.75H34.5296C34.9453 11.75 35.3419 11.9285 35.6187 12.2391C35.8941 12.5497 36.0248 12.9647 35.9756 13.3781L33.5044 34.2946C33.4362 34.8689 33.0352 35.3499 32.4815 35.518L23.9311 38.1251C23.7953 38.1669 23.6535 38.1875 23.5103 38.1875ZM15.0298 29.375L15.7752 34.1036L23.5177 36.7202L32.0533 34.1132L34.5157 13.2188H12.4844L12.9471 16.1562H30.3841C30.5941 16.1562 30.7939 16.2458 30.9327 16.403C31.0722 16.5594 31.1376 16.7687 31.1133 16.9765L30.5927 21.3828C30.5493 21.7529 30.2357 22.0312 29.8634 22.0312H19.0938V24.9688H29.3427C29.552 24.9688 29.7525 25.0583 29.8913 25.2155C30.0309 25.3719 30.0962 25.5812 30.072 25.789L29.411 31.3887C29.3765 31.6787 29.1746 31.9203 28.8962 32.0048L23.7843 33.5631C23.6367 33.6087 23.4795 33.6065 23.3348 33.5565L18.8206 32.0276C18.5614 31.9402 18.3734 31.7162 18.3301 31.4459L18.0033 29.375H15.0298Z" fill="#8D6C9F"/>
</svg>
