<svg width="26" height="25" viewBox="0 0 26 25" fill="none" xmlns="http://www.w3.org/2000/svg">
<path d="M5.86218 18.491C5.72661 18.3876 5.61311 18.2581 5.52838 18.1101C5.44365 17.9621 5.38941 17.7987 5.36884 17.6294C5.34828 17.4601 5.36181 17.2884 5.40864 17.1245C5.45547 16.9605 5.53466 16.8076 5.64152 16.6747C5.74839 16.5418 5.88078 16.4317 6.03088 16.3508C6.18099 16.2699 6.34577 16.2198 6.51552 16.2036C6.68527 16.1874 6.85654 16.2053 7.01925 16.2563C7.18196 16.3073 7.33282 16.3904 7.46291 16.5007L10.1712 18.6801C10.3712 18.8409 10.518 19.0581 10.5928 19.3035C10.6675 19.5489 10.6666 19.8111 10.5903 20.056C10.2415 21.17 9.98345 22.0042 9.8161 22.5574L9.63725 23.1616C9.52738 23.7953 9.07514 24.3037 8.35845 24.3037C8.16682 24.2386 8.01352 24.1862 7.88577 24.1402C3.17301 22.2175 0.0622559 17.6121 0.0622559 12.4343C0.0622559 5.37987 5.7817 -0.339569 12.8374 -0.339569C19.8932 -0.339569 25.6126 5.37987 25.6126 12.4356C25.6126 14.946 24.873 17.4008 23.4862 19.4933C22.0993 21.5859 20.1267 23.2235 17.8146 24.2015C17.6409 24.2705 17.4748 24.3037 17.3164 24.3037C16.5984 24.3037 16.1475 23.7953 16.0555 23.2293C15.8977 22.6899 15.7358 22.1516 15.57 21.6146C15.0151 19.826 14.4546 18.0392 13.8888 16.2541C13.7976 15.9654 13.8119 15.6537 13.9291 15.3746C14.0463 15.0955 14.2589 14.867 14.5289 14.73C16.0363 13.9661 16.67 13.2008 16.67 12.4343C16.67 12.0179 16.5103 11.6065 16.1947 11.2258C16.0662 11.0715 15.9758 10.889 15.931 10.6933C15.8861 10.4975 15.8881 10.2939 15.9367 10.099L15.9597 10.007L15.7936 10.1067C15.6283 10.2059 15.4426 10.2664 15.2506 10.2837C15.0585 10.3009 14.8651 10.2745 14.6847 10.2063C14.0937 9.98695 13.4679 9.87616 12.8374 9.87929C12.1808 9.87929 11.5522 9.99426 10.9901 10.2063C10.8098 10.2745 10.6163 10.3009 10.4243 10.2837C10.2322 10.2664 10.0466 10.2059 9.88125 10.1067L9.71517 10.007L9.73817 10.099C9.78676 10.2939 9.78871 10.4975 9.74387 10.6933C9.69904 10.889 9.60867 11.0715 9.48011 11.2258C9.16456 11.6065 9.00488 12.0179 9.00488 12.4343C9.00488 13.2008 9.63725 13.9661 11.146 14.73C11.2966 14.8053 11.4309 14.9096 11.541 15.0369C11.6512 15.1642 11.7351 15.3121 11.788 15.4719C11.8408 15.6318 11.8615 15.8005 11.8489 15.9684C11.8363 16.1363 11.7907 16.3001 11.7146 16.4503C11.6385 16.6005 11.5334 16.7341 11.4055 16.8436C11.2775 16.953 11.1292 17.0361 10.969 17.0881C10.8089 17.14 10.64 17.1598 10.4722 17.1462C10.3044 17.1327 10.1409 17.0861 9.99112 17.0091C7.71075 15.8542 6.44984 14.3302 6.44984 12.4356C6.44984 11.6218 6.68363 10.8425 7.11543 10.1463L6.48817 7.63469C6.21222 6.53092 7.40798 5.64432 8.384 6.22942L10.6963 7.61553C11.3934 7.42142 12.1138 7.32384 12.8374 7.32553C13.5758 7.32553 14.2976 7.4239 14.9798 7.61553L17.2909 6.22942C18.2656 5.64432 19.4626 6.53092 19.1867 7.63469L18.5594 10.1463C18.9912 10.8425 19.225 11.6218 19.225 12.4343C19.225 14.0465 18.3116 15.3905 16.6355 16.4674C17.1326 18.0403 17.6249 19.6146 18.1123 21.1904C20.0258 20.0379 21.509 18.2903 22.335 16.2148C23.1611 14.1394 23.2843 11.8505 22.6861 9.69829C22.0878 7.54613 20.8009 5.64924 19.0222 4.29786C17.2436 2.94649 15.0712 2.21505 12.8374 2.21546C10.6038 2.21533 8.43155 2.94697 6.65313 4.29844C4.87471 5.64992 3.58801 7.54681 2.98989 9.69891C2.39178 11.851 2.51517 14.1398 3.34121 16.2151C4.16724 18.2904 5.65042 20.038 7.56384 21.1904L7.89344 20.125L5.86218 18.4898V18.491Z" fill="#FF5C28"/>
</svg>
