<svg width="43" height="44" viewBox="0 0 43 44" fill="none" xmlns="http://www.w3.org/2000/svg">
<path d="M1.0758 2.76634L5.17752 36.7008C5.3231 37.9031 6.18081 38.9021 7.3537 39.2351L20.5121 42.9678C21.0441 43.1186 21.6077 43.1223 22.1419 42.9776L35.9809 39.2306C37.1921 38.9028 38.0738 37.8678 38.1984 36.6273L41.612 2.73709C41.7013 1.85134 41.0011 1.08334 40.1044 1.08334H2.57962C1.67163 1.08334 0.966994 1.87159 1.0758 2.76634Z" fill="#F6D397"/>
<path d="M40.1043 1.08334H21.3254V43.0833C21.6001 43.0848 21.8747 43.0496 22.1419 42.9776L35.9809 39.2306C37.192 38.9028 38.0737 37.8678 38.1983 36.6273L41.6119 2.73709C41.7012 1.85134 41.0011 1.08334 40.1043 1.08334Z" fill="#F9E3AE"/>
<path d="M21.3442 43.8333C20.9953 43.8333 20.6456 43.7853 20.3064 43.6893L7.14803 39.9566C5.68098 39.5403 4.61466 38.2983 4.43156 36.7908L0.329838 2.85634C0.252546 2.21884 0.453655 1.57759 0.879886 1.09609C1.31062 0.611586 1.9297 0.333336 2.58031 0.333336H40.1051C40.746 0.333336 41.3598 0.604836 41.789 1.07959C42.2145 1.55059 42.4231 2.18209 42.3593 2.81284L38.945 36.7031C38.7889 38.2421 37.6768 39.5486 36.176 39.9536L22.3385 43.7006C22.0128 43.7891 21.6789 43.8333 21.3442 43.8333ZM2.58031 1.83334C2.35593 1.83334 2.15107 1.92484 2.00399 2.09134C1.85992 2.25409 1.79463 2.46184 1.82089 2.67634L5.92261 36.6108C6.03217 37.5161 6.67452 38.2631 7.5585 38.5136L20.7176 42.2463C21.1191 42.3596 21.5431 42.3626 21.946 42.2538L35.7843 38.5068C36.6885 38.2623 37.3594 37.4771 37.4524 36.5531L40.866 2.66209C40.887 2.44984 40.8195 2.24509 40.6762 2.08534C40.5283 1.92259 40.325 1.83334 40.1044 1.83334H2.58031Z" fill="#8D6C9F"/>
<path d="M2.56547 6.33334C2.15049 6.33334 1.81506 5.99809 1.81506 5.58334V4.08334C1.81506 3.66859 2.15049 3.33334 2.56547 3.33334C2.98044 3.33334 3.31588 3.66859 3.31588 4.08334V5.58334C3.31588 5.99809 2.98044 6.33334 2.56547 6.33334ZM6.3175 6.33334C5.90252 6.33334 5.56709 5.99809 5.56709 5.58334V4.08334C5.56709 3.66859 5.90252 3.33334 6.3175 3.33334C6.73247 3.33334 7.0679 3.66859 7.0679 4.08334V5.58334C7.0679 5.99809 6.73247 6.33334 6.3175 6.33334ZM10.0695 6.33334C9.65455 6.33334 9.31912 5.99809 9.31912 5.58334V4.08334C9.31912 3.66859 9.65455 3.33334 10.0695 3.33334C10.4845 3.33334 10.8199 3.66859 10.8199 4.08334V5.58334C10.8199 5.99809 10.4845 6.33334 10.0695 6.33334ZM13.8216 6.33334C13.4066 6.33334 13.0712 5.99809 13.0712 5.58334V4.08334C13.0712 3.66859 13.4066 3.33334 13.8216 3.33334C14.2365 3.33334 14.572 3.66859 14.572 4.08334V5.58334C14.572 5.99809 14.2365 6.33334 13.8216 6.33334ZM17.5736 6.33334C17.1586 6.33334 16.8232 5.99809 16.8232 5.58334V4.08334C16.8232 3.66859 17.1586 3.33334 17.5736 3.33334C17.9886 3.33334 18.324 3.66859 18.324 4.08334V5.58334C18.324 5.99809 17.9886 6.33334 17.5736 6.33334ZM21.3256 6.33334C20.9106 6.33334 20.5752 5.99809 20.5752 5.58334V4.08334C20.5752 3.66859 20.9106 3.33334 21.3256 3.33334C21.7406 3.33334 22.076 3.66859 22.076 4.08334V5.58334C22.076 5.99809 21.7406 6.33334 21.3256 6.33334ZM25.0776 6.33334C24.6627 6.33334 24.3272 5.99809 24.3272 5.58334V4.08334C24.3272 3.66859 24.6627 3.33334 25.0776 3.33334C25.4926 3.33334 25.8281 3.66859 25.8281 4.08334V5.58334C25.8281 5.99809 25.4926 6.33334 25.0776 6.33334ZM28.8297 6.33334C28.4147 6.33334 28.0793 5.99809 28.0793 5.58334V4.08334C28.0793 3.66859 28.4147 3.33334 28.8297 3.33334C29.2446 3.33334 29.5801 3.66859 29.5801 4.08334V5.58334C29.5801 5.99809 29.2446 6.33334 28.8297 6.33334ZM32.5817 6.33334C32.1667 6.33334 31.8313 5.99809 31.8313 5.58334V4.08334C31.8313 3.66859 32.1667 3.33334 32.5817 3.33334C32.9967 3.33334 33.3321 3.66859 33.3321 4.08334V5.58334C33.3321 5.99809 32.9967 6.33334 32.5817 6.33334ZM36.3337 6.33334C35.9188 6.33334 35.5833 5.99809 35.5833 5.58334V4.08334C35.5833 3.66859 35.9188 3.33334 36.3337 3.33334C36.7487 3.33334 37.0841 3.66859 37.0841 4.08334V5.58334C37.0841 5.99809 36.7487 6.33334 36.3337 6.33334ZM40.0858 6.33334C39.6708 6.33334 39.3354 5.99809 39.3354 5.58334V4.08334C39.3354 3.66859 39.6708 3.33334 40.0858 3.33334C40.5007 3.33334 40.8362 3.66859 40.8362 4.08334V5.58334C40.8362 5.99809 40.5007 6.33334 40.0858 6.33334Z" fill="#8D6C9F"/>
<path d="M32.5951 10.0833H10.0694C9.60862 10.0833 9.25668 10.4943 9.32872 10.9496L11.2197 22.9503C11.2775 23.3148 11.5919 23.5833 11.9611 23.5833H26.4515C26.901 23.5833 27.2492 23.9756 27.1966 24.4211L26.6196 29.3021L21.396 30.8936L16.7833 29.3321L16.4501 27.2163C16.3923 26.8518 16.0779 26.5833 15.7087 26.5833H12.6703C12.2095 26.5833 11.8576 26.9951 11.9289 27.4503L12.6898 32.2796C12.7326 32.5511 12.9224 32.7768 13.1836 32.8646L21.1026 35.5451C21.1784 35.5706 21.2564 35.5833 21.3352 35.5833C21.4065 35.5833 21.4778 35.5728 21.5468 35.5518L30.2838 32.8908C30.5645 32.8053 30.7686 32.5616 30.8023 32.2706L32.2619 19.9218C32.3152 19.4756 31.967 19.0833 31.5175 19.0833H15.81C15.4408 19.0833 15.1264 18.8148 15.0686 18.4503L14.5958 15.4503C14.5238 14.9951 14.8757 14.5833 15.3372 14.5833H32.2266C32.6071 14.5833 32.9275 14.2991 32.9718 13.9211L33.3282 10.9068C33.38 10.4688 33.037 10.0833 32.5951 10.0833Z" fill="#FAEFDE"/>
<path d="M21.3361 36.3333C21.1777 36.3333 21.0201 36.3078 20.8678 36.2568L12.9435 33.5748C12.4175 33.3978 12.0363 32.9463 11.9492 32.3973L11.1876 27.5666C11.1193 27.1331 11.2439 26.6928 11.529 26.3591C11.8149 26.0253 12.2306 25.8341 12.6704 25.8341H15.7095C16.4532 25.8341 17.0768 26.3673 17.1923 27.1016L17.455 28.7681L21.4096 30.1061L25.9338 28.7283L26.4516 24.3333H11.9613C11.2176 24.3333 10.594 23.8001 10.4785 23.0658L8.58668 11.0658C8.51839 10.6331 8.64296 10.1928 8.92811 9.85909C9.21402 9.52459 9.62974 9.33334 10.0695 9.33334H32.5959C33.0199 9.33334 33.4251 9.51484 33.7073 9.83209C33.9894 10.1486 34.123 10.5723 34.0735 10.9946L33.717 14.0096C33.6285 14.7641 32.9876 15.3333 32.2267 15.3333H15.3373L15.8108 18.3333H31.5183C31.9468 18.3333 32.3558 18.5171 32.6402 18.8373C32.9246 19.1568 33.0597 19.5843 33.0086 20.0096L31.5491 32.3583C31.4793 32.9463 31.0688 33.4368 30.5023 33.6086L21.7668 36.2703C21.6272 36.3123 21.4824 36.3333 21.3361 36.3333ZM12.6704 27.3333L13.432 32.1626L21.3436 34.8348L30.0655 32.1723L31.5176 19.8333H15.8093C15.0657 19.8333 14.4421 19.3001 14.3265 18.5658L13.8538 15.5666C13.7855 15.1331 13.9101 14.6928 14.1952 14.3591C14.4811 14.0253 14.8968 13.8341 15.3366 13.8341H32.2267L32.5817 10.8333H10.0695L11.9613 22.8333H26.4516C26.8801 22.8333 27.289 23.0171 27.5734 23.3373C27.8578 23.6568 27.9929 24.0843 27.9419 24.5096L27.3648 29.3906C27.3296 29.6868 27.1232 29.9336 26.8388 30.0198L21.6152 31.6113C21.4644 31.6578 21.3038 31.6556 21.156 31.6046L16.5432 30.0431C16.2783 29.9538 16.0862 29.7251 16.042 29.4491L15.7088 27.3333H12.6704ZM27.3281 38.4378C26.9979 38.4378 26.6947 38.2181 26.6047 37.8843C26.4959 37.4846 26.7322 37.0728 27.1322 36.9641L28.633 36.5576C29.0337 36.4481 29.4457 36.6851 29.5538 37.0848C29.6626 37.4846 29.4262 37.8963 29.0262 38.0051L27.5254 38.4116C27.4594 38.4296 27.3933 38.4378 27.3281 38.4378ZM21.3436 40.0856L17.3679 38.9576C16.9695 38.8451 16.7376 38.4296 16.8516 38.0313C16.9642 37.6331 17.3777 37.3998 17.7784 37.5153L21.3526 38.5293L24.1306 37.7778C24.5313 37.6668 24.9433 37.9053 25.0513 38.3051C25.1601 38.7048 24.9238 39.1173 24.5238 39.2253L21.3436 40.0856Z" fill="#8D6C9F"/>
<path d="M35.2079 14.5833L36.1369 16.2798L37.8343 17.2083L36.1369 18.1368L35.2079 19.8333L34.2789 18.1368L32.5815 17.2083L34.2789 16.2798L35.2079 14.5833ZM32.9582 32.5833L33.6156 33.7908L34.8327 34.4598L33.6156 35.1168L32.9582 36.3333L32.2888 35.1168L31.0807 34.4598L32.2888 33.7908L32.9582 32.5833ZM6.691 23.5833L7.08797 24.3048L7.80986 24.7068L7.08797 25.1036L6.691 25.8333L6.28878 25.1036L5.56689 24.7068L6.28878 24.3048L6.691 23.5833Z" fill="#FAEFDE"/>
</svg>
