<svg width="47" height="34" viewBox="0 0 47 34" fill="none" xmlns="http://www.w3.org/2000/svg">
<path d="M29.1258 23.7765C29.7333 25.029 30.6759 26.0818 31.8453 26.8139C33.0147 27.546 34.3635 27.9277 35.7366 27.9151C38.5133 27.9151 40.2874 26.503 40.2874 24.5532C40.2874 22.2171 38.4643 21.3885 35.4096 20.0283L33.7334 19.2973C28.8987 17.2022 25.6853 14.5772 25.6853 9.02854C25.6853 3.91605 29.5155 0.0264201 35.4997 0.0264201C37.4419 -0.116916 39.3825 0.325239 41.079 1.2976C42.7755 2.26997 44.1525 3.7294 45.0379 5.49342L39.8194 8.90108C39.4777 8.02695 38.8826 7.27927 38.1131 6.7574C37.3436 6.23552 36.4362 5.96416 35.5114 5.97937C35.1083 5.93812 34.7012 5.98276 34.316 6.11043C33.9309 6.23811 33.5761 6.44602 33.2743 6.72092C32.9725 6.99581 32.7303 7.33165 32.5633 7.70703C32.3962 8.0824 32.3079 8.48906 32.3039 8.90108C32.3039 10.9465 33.5493 11.773 36.4161 13.0397L38.0923 13.7686C43.7866 16.2521 47 18.7835 47 24.4755C47 30.6117 42.2612 33.9736 35.8952 33.9736C33.4155 34.134 30.9432 33.5612 28.7764 32.3243C26.6097 31.0875 24.8411 29.2393 23.6841 27.0029L29.1258 23.7765ZM5.45546 24.374C6.50896 26.274 7.4665 27.8792 9.76344 27.8792C11.9644 27.8792 13.3547 27.0029 13.3547 23.5972V0.424744H20.0556V23.6928C20.0556 30.7492 15.9865 33.9616 10.0493 33.9616C7.95211 34.0771 5.86965 33.5442 4.07593 32.4329C2.2822 31.3216 0.861242 29.6841 0 27.7358L5.45546 24.374Z" fill="#F5DE19"/>
</svg>
