<svg width="47" height="43" viewBox="0 0 47 43" fill="none" xmlns="http://www.w3.org/2000/svg">
<path d="M23.3497 25.5902C25.6749 25.5902 27.5598 23.701 27.5598 21.3706C27.5598 19.0401 25.6749 17.1509 23.3497 17.1509C21.0246 17.1509 19.1396 19.0401 19.1396 21.3706C19.1396 23.701 21.0246 25.5902 23.3497 25.5902Z" fill="#00DBFC"/>
<path d="M44.627 17.665C43.1726 16.4375 41.1059 15.3634 38.6564 14.5194C38.1971 14.366 37.6612 14.2125 37.1254 14.0591C37.202 13.6755 37.2785 13.3686 37.3551 12.985C38.5033 7.30763 37.6612 2.8578 35.2117 1.40009C33.987 0.709602 32.3029 0.709602 30.3893 1.40009C28.6287 2.09058 26.6384 3.31812 24.7248 5.00599C24.342 5.31288 23.9593 5.69648 23.5765 6.08009C23.3469 5.84993 23.0407 5.61976 22.8111 5.3896C18.5244 1.55354 14.2378 0.0191132 11.7117 1.47682C10.487 2.16731 9.64495 3.62501 9.26222 5.69648C8.95603 7.53779 9.03257 9.91615 9.5684 12.4479C9.64495 12.985 9.79805 13.4453 9.95114 13.9824C9.33876 14.1358 8.72639 14.366 8.19055 14.5194C3.06189 16.284 -1.64448e-10 19.046 -1.89454e-10 21.8079C-2.02652e-10 23.2656 0.84202 24.8001 2.44951 26.1043C3.98046 27.4086 6.12378 28.5594 8.57329 29.4033C8.95603 29.5568 9.41531 29.7102 9.87459 29.7869C9.7215 30.324 9.64495 30.9378 9.49186 31.4748C8.49674 36.7686 9.33876 40.8348 11.7117 42.2158C12.3241 42.5994 13.0896 42.7528 13.9316 42.7528C14.7736 42.7528 15.6922 42.5994 16.6873 42.2158C18.601 41.5253 20.5912 40.2977 22.5814 38.5332C22.8876 38.2263 23.2704 37.9194 23.5765 37.6125C24.0358 37.9961 24.4186 38.3797 24.8779 38.7633C27.8632 41.3718 30.772 42.7528 33.0684 42.7528C33.9104 42.7528 34.6759 42.5994 35.2883 42.2158C36.513 41.4486 37.4316 39.9909 37.8143 37.9194C38.1971 35.9246 38.1205 33.5463 37.5847 30.9378C37.5081 30.5542 37.4316 30.0938 37.2785 29.7102C37.5847 29.6335 37.8909 29.5568 38.1205 29.4033C43.6319 27.562 47 24.6466 47 21.7312C47 20.427 46.158 18.9693 44.627 17.665ZM31.0782 3.31812C32.456 2.8578 33.5277 2.78107 34.2166 3.16468C35.5945 3.93189 36.513 7.23091 35.4414 12.6014C35.3648 12.9083 35.2883 13.2152 35.2117 13.522C33.2215 13.0617 31.1547 12.7548 28.9349 12.5247C27.6336 10.6834 26.3323 8.99549 24.9544 7.53779C25.3371 7.15418 25.6433 6.8473 26.0261 6.54041C27.7866 5.00599 29.5472 3.93189 31.0782 3.31812ZM30.0831 25.7207C29.3176 27.025 28.6287 28.2525 27.8632 29.3266C26.4853 29.4033 25.0309 29.4801 23.5765 29.4801C22.1222 29.4801 20.6678 29.4033 19.2899 29.3266C18.5244 28.1758 17.6824 26.9483 16.9935 25.644C16.228 24.4165 15.6156 23.1122 15.0033 21.8079C15.6156 20.5037 16.3046 19.2761 16.9935 18.0486C17.759 16.8211 18.5244 15.5935 19.2899 14.366C20.6678 14.2893 22.1222 14.2125 23.5765 14.2125C25.0309 14.2125 26.4853 14.2893 27.8632 14.366C28.6287 15.5168 29.3941 16.7443 30.1596 17.9719C30.9251 19.2761 31.614 20.5037 32.2264 21.7312C31.4609 23.1122 30.8485 24.4165 30.0831 25.7207ZM33.145 24.1863C33.7573 25.644 34.2932 27.025 34.7524 28.3292C33.3746 28.6361 31.9202 28.8663 30.3893 29.0965C30.8485 28.3292 31.3844 27.4853 31.8437 26.7181C32.3029 25.8742 32.7622 25.0302 33.145 24.1863ZM23.5765 34.8505C22.658 33.8532 21.6629 32.7023 20.7443 31.4748C21.6629 31.4748 22.5814 31.5515 23.5 31.5515C24.4951 31.5515 25.4137 31.5515 26.3322 31.4748C25.4137 32.7023 24.4951 33.8532 23.5765 34.8505ZM16.6873 29.0965C15.1564 28.943 13.702 28.7128 12.3241 28.406C12.7068 27.025 13.2427 25.644 13.8551 24.263C14.3143 25.1069 14.6971 25.8742 15.1564 26.7181C15.6922 27.562 16.1515 28.3292 16.6873 29.0965ZM15.2329 17.0512C14.7736 17.8952 14.3143 18.6624 13.9316 19.5063C13.3192 18.1253 12.8599 16.7443 12.4007 15.4401C13.7785 15.1332 15.1564 14.903 16.6873 14.6729C16.1515 15.4401 15.6922 16.284 15.2329 17.0512ZM23.5 8.99549C24.4186 9.99287 25.3371 11.1437 26.2557 12.3712C25.3371 12.2945 24.4186 12.2945 23.4235 12.2945C22.5049 12.2945 21.5863 12.2945 20.6678 12.3712C21.6629 11.1437 22.5814 9.99287 23.5 8.99549ZM31.7671 17.0512C31.3078 16.2073 30.8485 15.4401 30.3127 14.6729C31.8437 14.8263 33.2215 15.1332 34.5994 15.4401C34.2166 16.7443 33.6808 18.1253 33.0684 19.5063C32.7622 18.7391 32.3029 17.8952 31.7671 17.0512ZM11.4821 12.0643C11.0228 9.76271 10.9463 7.69123 11.2524 6.08009C11.4821 4.69911 12.0179 3.70173 12.7068 3.2414C14.0847 2.47419 17.3762 3.2414 21.4332 6.92402C21.6629 7.15418 21.8925 7.38435 22.1222 7.61451C20.7443 9.07222 19.443 10.7601 18.1417 12.6014C15.9218 12.8316 13.7785 13.1384 11.8648 13.5988C11.7117 12.985 11.6352 12.5247 11.4821 12.0643ZM9.26222 27.562C4.28665 25.8742 1.99023 23.4191 1.99023 21.8079C1.99023 20.2735 4.13355 18.0486 8.80293 16.4375C9.33876 16.284 9.8746 16.0538 10.4104 15.9004C11.0228 17.8184 11.7883 19.8132 12.7068 21.8847C11.7883 23.9561 10.9463 25.9509 10.4104 27.9456C10.0277 27.7922 9.64495 27.7155 9.26222 27.562ZM13.9316 40.8348C13.3958 40.8348 13.013 40.7581 12.7068 40.5279C11.4055 39.7607 10.487 36.8453 11.4821 31.9351C11.5586 31.3981 11.7117 30.9378 11.7883 30.4007C13.702 30.861 15.8453 31.1679 18.1417 31.3214C19.443 33.1627 20.8208 34.8505 22.1987 36.3082C21.8925 36.6151 21.5863 36.8453 21.2801 37.1522C18.2948 39.7607 15.6156 40.8348 13.9316 40.8348ZM35.5945 31.3981C36.5896 36.5384 35.5945 39.7607 34.2932 40.5279C32.9919 41.2951 30.0065 40.6046 26.2557 37.3056C25.873 36.9987 25.4902 36.6151 25.1075 36.2315C26.4088 34.7738 27.7866 33.086 29.088 31.2446C31.3844 31.0145 33.5277 30.7076 35.4414 30.2473C35.4414 30.6309 35.5179 31.0145 35.5945 31.3981ZM37.5081 27.562C37.2785 27.6387 36.9723 27.7155 36.7427 27.7922C36.1303 25.9509 35.3648 23.8794 34.3697 21.8079C35.2883 19.8132 36.0537 17.8184 36.6661 15.9004C37.1254 16.0538 37.5847 16.2073 38.044 16.3607C40.2638 17.1279 42.101 18.1253 43.3257 19.1227C44.3974 20.0433 45.0098 20.964 45.0098 21.8079C45.0098 23.4191 42.6368 25.8742 37.5081 27.562Z" fill="#00DBFC"/>
</svg>
